<svg xmlns="http://www.w3.org/2000/svg" viewBox="0 0 64 64" shape-rendering="crispEdges">
<rect x="33" y="2" width="1" height="1" fill="#1f2937"/>
<rect x="34" y="2" width="1" height="1" fill="#1f2937"/>
<rect x="31" y="3" width="1" height="1" fill="#1f2937"/>
<rect x="32" y="3" width="1" height="1" fill="#1f2937"/>
<rect x="33" y="3" width="1" height="1" fill="#1f2937"/>
<rect x="34" y="3" width="1" height="1" fill="#1f2937"/>
<rect x="30" y="4" width="1" height="1" fill="#1f2937"/>
<rect x="31" y="4" width="1" height="1" fill="#1f2937"/>
<rect x="34" y="4" width="1" height="1" fill="#1f2937"/>
<rect x="28" y="5" width="1" height="1" fill="#1f2937"/>
<rect x="29" y="5" width="1" height="1" fill="#1f2937"/>
<rect x="30" y="5" width="1" height="1" fill="#1f2937"/>
<rect x="34" y="5" width="1" height="1" fill="#1f2937"/>
<rect x="28" y="6" width="1" height="1" fill="#1f2937"/>
<rect x="34" y="6" width="1" height="1" fill="#1f2937"/>
<rect x="28" y="7" width="1" height="1" fill="#1f2937"/>
<rect x="34" y="7" width="1" height="1" fill="#1f2937"/>
<rect x="5" y="8" width="1" height="1" fill="#1f2937"/>
<rect x="6" y="8" width="1" height="1" fill="#1f2937"/>
<rect x="28" y="8" width="1" height="1" fill="#1f2937"/>
<rect x="34" y="8" width="1" height="1" fill="#1f2937"/>
<rect x="5" y="9" width="1" height="1" fill="#1f2937"/>
<rect x="6" y="9" width="1" height="1" fill="#1f2937"/>
<rect x="7" y="9" width="1" height="1" fill="#1f2937"/>
<rect x="8" y="9" width="1" height="1" fill="#1f2937"/>
<rect x="28" y="9" width="1" height="1" fill="#1f2937"/>
<rect x="34" y="9" width="1" height="1" fill="#1f2937"/>
<rect x="54" y="9" width="1" height="1" fill="#1f2937"/>
<rect x="55" y="9" width="1" height="1" fill="#1f2937"/>
<rect x="56" y="9" width="1" height="1" fill="#1f2937"/>
<rect x="57" y="9" width="1" height="1" fill="#1f2937"/>
<rect x="5" y="10" width="1" height="1" fill="#1f2937"/>
<rect x="8" y="10" width="1" height="1" fill="#1f2937"/>
<rect x="9" y="10" width="1" height="1" fill="#1f2937"/>
<rect x="10" y="10" width="1" height="1" fill="#1f2937"/>
<rect x="28" y="10" width="1" height="1" fill="#1f2937"/>
<rect x="34" y="10" width="1" height="1" fill="#1f2937"/>
<rect x="35" y="10" width="1" height="1" fill="#1f2937"/>
<rect x="52" y="10" width="1" height="1" fill="#1f2937"/>
<rect x="53" y="10" width="1" height="1" fill="#1f2937"/>
<rect x="54" y="10" width="1" height="1" fill="#1f2937"/>
<rect x="57" y="10" width="1" height="1" fill="#1f2937"/>
<rect x="5" y="11" width="1" height="1" fill="#1f2937"/>
<rect x="10" y="11" width="1" height="1" fill="#1f2937"/>
<rect x="11" y="11" width="1" height="1" fill="#1f2937"/>
<rect x="12" y="11" width="1" height="1" fill="#1f2937"/>
<rect x="27" y="11" width="1" height="1" fill="#1f2937"/>
<rect x="28" y="11" width="1" height="1" fill="#1f2937"/>
<rect x="34" y="11" width="1" height="1" fill="#1f2937"/>
<rect x="35" y="11" width="1" height="1" fill="#1f2937"/>
<rect x="50" y="11" width="1" height="1" fill="#1f2937"/>
<rect x="51" y="11" width="1" height="1" fill="#1f2937"/>
<rect x="52" y="11" width="1" height="1" fill="#1f2937"/>
<rect x="57" y="11" width="1" height="1" fill="#1f2937"/>
<rect x="5" y="12" width="1" height="1" fill="#1f2937"/>
<rect x="12" y="12" width="1" height="1" fill="#1f2937"/>
<rect x="13" y="12" width="1" height="1" fill="#1f2937"/>
<rect x="14" y="12" width="1" height="1" fill="#1f2937"/>
<rect x="27" y="12" width="1" height="1" fill="#1f2937"/>
<rect x="35" y="12" width="1" height="1" fill="#1f2937"/>
<rect x="48" y="12" width="1" height="1" fill="#1d2738"/>
<rect x="49" y="12" width="1" height="1" fill="#1f2937"/>
<rect x="50" y="12" width="1" height="1" fill="#1f2937"/>
<rect x="57" y="12" width="1" height="1" fill="#1f2937"/>
<rect x="5" y="13" width="1" height="1" fill="#1f2937"/>
<rect x="14" y="13" width="1" height="1" fill="#1f2937"/>
<rect x="15" y="13" width="1" height="1" fill="#1f2937"/>
<rect x="27" y="13" width="1" height="1" fill="#1f2937"/>
<rect x="35" y="13" width="1" height="1" fill="#1f2937"/>
<rect x="36" y="13" width="1" height="1" fill="#1f2937"/>
<rect x="47" y="13" width="1" height="1" fill="#1f2937"/>
<rect x="48" y="13" width="1" height="1" fill="#1f2937"/>
<rect x="57" y="13" width="1" height="1" fill="#1f2937"/>
<rect x="5" y="14" width="1" height="1" fill="#1f2937"/>
<rect x="15" y="14" width="1" height="1" fill="#1f2937"/>
<rect x="16" y="14" width="1" height="1" fill="#1f2937"/>
<rect x="26" y="14" width="1" height="1" fill="#1f2937"/>
<rect x="27" y="14" width="1" height="1" fill="#1f2937"/>
<rect x="36" y="14" width="1" height="1" fill="#1f2937"/>
<rect x="46" y="14" width="1" height="1" fill="#1f2937"/>
<rect x="47" y="14" width="1" height="1" fill="#1f2937"/>
<rect x="57" y="14" width="1" height="1" fill="#1f2937"/>
<rect x="5" y="15" width="1" height="1" fill="#1f2937"/>
<rect x="17" y="15" width="1" height="1" fill="#1f2937"/>
<rect x="18" y="15" width="1" height="1" fill="#1f2937"/>
<rect x="25" y="15" width="1" height="1" fill="#1f2937"/>
<rect x="26" y="15" width="1" height="1" fill="#1f2937"/>
<rect x="36" y="15" width="1" height="1" fill="#1f2937"/>
<rect x="37" y="15" width="1" height="1" fill="#1f2937"/>
<rect x="44" y="15" width="1" height="1" fill="#1f2937"/>
<rect x="45" y="15" width="1" height="1" fill="#1f2937"/>
<rect x="46" y="15" width="1" height="1" fill="#1f2937"/>
<rect x="57" y="15" width="1" height="1" fill="#1f2937"/>
<rect x="5" y="16" width="1" height="1" fill="#1f2937"/>
<rect x="18" y="16" width="1" height="1" fill="#1f2937"/>
<rect x="19" y="16" width="1" height="1" fill="#1f2937"/>
<rect x="24" y="16" width="1" height="1" fill="#1f2937"/>
<rect x="25" y="16" width="1" height="1" fill="#1f2937"/>
<rect x="37" y="16" width="1" height="1" fill="#1f2937"/>
<rect x="38" y="16" width="1" height="1" fill="#1f2937"/>
<rect x="43" y="16" width="1" height="1" fill="#1f2937"/>
<rect x="44" y="16" width="1" height="1" fill="#1f2937"/>
<rect x="57" y="16" width="1" height="1" fill="#1f2937"/>
<rect x="5" y="17" width="1" height="1" fill="#1f2937"/>
<rect x="19" y="17" width="1" height="1" fill="#1f2937"/>
<rect x="20" y="17" width="1" height="1" fill="#1f2937"/>
<rect x="23" y="17" width="1" height="1" fill="#1f2937"/>
<rect x="24" y="17" width="1" height="1" fill="#1f2937"/>
<rect x="38" y="17" width="1" height="1" fill="#1f2937"/>
<rect x="39" y="17" width="1" height="1" fill="#1f2937"/>
<rect x="42" y="17" width="1" height="1" fill="#1f2937"/>
<rect x="43" y="17" width="1" height="1" fill="#1f2937"/>
<rect x="57" y="17" width="1" height="1" fill="#1f2937"/>
<rect x="5" y="18" width="1" height="1" fill="#1f2937"/>
<rect x="20" y="18" width="1" height="1" fill="#1f2937"/>
<rect x="21" y="18" width="1" height="1" fill="#1f2937"/>
<rect x="22" y="18" width="1" height="1" fill="#1f2937"/>
<rect x="23" y="18" width="1" height="1" fill="#1f2937"/>
<rect x="39" y="18" width="1" height="1" fill="#1f2937"/>
<rect x="40" y="18" width="1" height="1" fill="#1f2937"/>
<rect x="41" y="18" width="1" height="1" fill="#1f2937"/>
<rect x="42" y="18" width="1" height="1" fill="#1f2937"/>
<rect x="57" y="18" width="1" height="1" fill="#1f2937"/>
<rect x="5" y="19" width="1" height="1" fill="#1f2937"/>
<rect x="19" y="19" width="1" height="1" fill="#1f2937"/>
<rect x="20" y="19" width="1" height="1" fill="#1f2937"/>
<rect x="21" y="19" width="1" height="1" fill="#1f2937"/>
<rect x="42" y="19" width="1" height="1" fill="#1f2937"/>
<rect x="43" y="19" width="1" height="1" fill="#1f2937"/>
<rect x="44" y="19" width="1" height="1" fill="#1f2937"/>
<rect x="57" y="19" width="1" height="1" fill="#1f2937"/>
<rect x="5" y="20" width="1" height="1" fill="#1f2937"/>
<rect x="17" y="20" width="1" height="1" fill="#1f2937"/>
<rect x="18" y="20" width="1" height="1" fill="#1f2937"/>
<rect x="19" y="20" width="1" height="1" fill="#1f2937"/>
<rect x="44" y="20" width="1" height="1" fill="#1f2937"/>
<rect x="45" y="20" width="1" height="1" fill="#1f2937"/>
<rect x="57" y="20" width="1" height="1" fill="#1f2937"/>
<rect x="5" y="21" width="1" height="1" fill="#1f2937"/>
<rect x="15" y="21" width="1" height="1" fill="#1f2937"/>
<rect x="16" y="21" width="1" height="1" fill="#1f2937"/>
<rect x="17" y="21" width="1" height="1" fill="#1f2937"/>
<rect x="45" y="21" width="1" height="1" fill="#1f2937"/>
<rect x="46" y="21" width="1" height="1" fill="#1f2937"/>
<rect x="47" y="21" width="1" height="1" fill="#1f2937"/>
<rect x="57" y="21" width="1" height="1" fill="#1f2937"/>
<rect x="5" y="22" width="1" height="1" fill="#1f2937"/>
<rect x="13" y="22" width="1" height="1" fill="#1f2937"/>
<rect x="14" y="22" width="1" height="1" fill="#1f2937"/>
<rect x="15" y="22" width="1" height="1" fill="#1f2937"/>
<rect x="47" y="22" width="1" height="1" fill="#1f2937"/>
<rect x="48" y="22" width="1" height="1" fill="#1f2937"/>
<rect x="49" y="22" width="1" height="1" fill="#1f2937"/>
<rect x="57" y="22" width="1" height="1" fill="#1f2937"/>
<rect x="5" y="23" width="1" height="1" fill="#1f2937"/>
<rect x="6" y="23" width="1" height="1" fill="#1f2937"/>
<rect x="12" y="23" width="1" height="1" fill="#1f2937"/>
<rect x="13" y="23" width="1" height="1" fill="#1f2937"/>
<rect x="49" y="23" width="1" height="1" fill="#1f2937"/>
<rect x="50" y="23" width="1" height="1" fill="#1f2937"/>
<rect x="56" y="23" width="1" height="1" fill="#1f2937"/>
<rect x="57" y="23" width="1" height="1" fill="#1f2937"/>
<rect x="6" y="24" width="1" height="1" fill="#1f2937"/>
<rect x="10" y="24" width="1" height="1" fill="#1f2937"/>
<rect x="11" y="24" width="1" height="1" fill="#1f2937"/>
<rect x="12" y="24" width="1" height="1" fill="#1f2937"/>
<rect x="50" y="24" width="1" height="1" fill="#1f2937"/>
<rect x="51" y="24" width="1" height="1" fill="#1f2937"/>
<rect x="52" y="24" width="1" height="1" fill="#1f2937"/>
<rect x="56" y="24" width="1" height="1" fill="#1f2937"/>
<rect x="6" y="25" width="1" height="1" fill="#1f2937"/>
<rect x="9" y="25" width="1" height="1" fill="#1f2937"/>
<rect x="10" y="25" width="1" height="1" fill="#1f2937"/>
<rect x="52" y="25" width="1" height="1" fill="#1f2937"/>
<rect x="53" y="25" width="1" height="1" fill="#1f2937"/>
<rect x="56" y="25" width="1" height="1" fill="#1f2937"/>
<rect x="6" y="26" width="1" height="1" fill="#1f2937"/>
<rect x="8" y="26" width="1" height="1" fill="#1f2937"/>
<rect x="9" y="26" width="1" height="1" fill="#1f2937"/>
<rect x="53" y="26" width="1" height="1" fill="#1f2937"/>
<rect x="54" y="26" width="1" height="1" fill="#1f2937"/>
<rect x="56" y="26" width="1" height="1" fill="#1f2937"/>
<rect x="6" y="27" width="1" height="1" fill="#1f2937"/>
<rect x="7" y="27" width="1" height="1" fill="#1f2937"/>
<rect x="8" y="27" width="1" height="1" fill="#1f2937"/>
<rect x="54" y="27" width="1" height="1" fill="#1f2937"/>
<rect x="55" y="27" width="1" height="1" fill="#1f2937"/>
<rect x="56" y="27" width="1" height="1" fill="#1f2937"/>
<rect x="6" y="28" width="1" height="1" fill="#1f2937"/>
<rect x="7" y="28" width="1" height="1" fill="#1f2937"/>
<rect x="55" y="28" width="1" height="1" fill="#1f2937"/>
<rect x="56" y="28" width="1" height="1" fill="#1f2937"/>
<rect x="5" y="29" width="1" height="1" fill="#1f2937"/>
<rect x="6" y="29" width="1" height="1" fill="#1f2937"/>
<rect x="56" y="29" width="1" height="1" fill="#1f2937"/>
<rect x="57" y="29" width="1" height="1" fill="#1f2937"/>
<rect x="4" y="30" width="1" height="1" fill="#1f2937"/>
<rect x="5" y="30" width="1" height="1" fill="#1f2937"/>
<rect x="57" y="30" width="1" height="1" fill="#1f2937"/>
<rect x="58" y="30" width="1" height="1" fill="#1f2937"/>
<rect x="4" y="31" width="1" height="1" fill="#1f2937"/>
<rect x="58" y="31" width="1" height="1" fill="#1f2937"/>
<rect x="3" y="32" width="1" height="1" fill="#1f2937"/>
<rect x="4" y="32" width="1" height="1" fill="#1f2937"/>
<rect x="14" y="32" width="1" height="1" fill="#1f2937"/>
<rect x="15" y="32" width="1" height="1" fill="#1f2937"/>
<rect x="16" y="32" width="1" height="1" fill="#1f2937"/>
<rect x="17" y="32" width="1" height="1" fill="#1f2937"/>
<rect x="18" y="32" width="1" height="1" fill="#1f2937"/>
<rect x="19" y="32" width="1" height="1" fill="#1f2937"/>
<rect x="20" y="32" width="1" height="1" fill="#1f2937"/>
<rect x="21" y="32" width="1" height="1" fill="#1f2937"/>
<rect x="22" y="32" width="1" height="1" fill="#1f2937"/>
<rect x="23" y="32" width="1" height="1" fill="#1f2937"/>
<rect x="24" y="32" width="1" height="1" fill="#1f2937"/>
<rect x="25" y="32" width="1" height="1" fill="#000000"/>
<rect x="37" y="32" width="1" height="1" fill="#1f2937"/>
<rect x="38" y="32" width="1" height="1" fill="#1f2937"/>
<rect x="39" y="32" width="1" height="1" fill="#1f2937"/>
<rect x="40" y="32" width="1" height="1" fill="#1f2937"/>
<rect x="41" y="32" width="1" height="1" fill="#1f2937"/>
<rect x="42" y="32" width="1" height="1" fill="#1f2937"/>
<rect x="43" y="32" width="1" height="1" fill="#1f2937"/>
<rect x="44" y="32" width="1" height="1" fill="#1f2937"/>
<rect x="45" y="32" width="1" height="1" fill="#1f2937"/>
<rect x="46" y="32" width="1" height="1" fill="#1f2937"/>
<rect x="47" y="32" width="1" height="1" fill="#1f2937"/>
<rect x="58" y="32" width="1" height="1" fill="#1f2937"/>
<rect x="59" y="32" width="1" height="1" fill="#1f2937"/>
<rect x="2" y="33" width="1" height="1" fill="#1f2937"/>
<rect x="3" y="33" width="1" height="1" fill="#1f2937"/>
<rect x="14" y="33" width="1" height="1" fill="#1f2937"/>
<rect x="15" y="33" width="1" height="1" fill="#1f2937"/>
<rect x="16" y="33" width="1" height="1" fill="#1f2937"/>
<rect x="17" y="33" width="1" height="1" fill="#1f2937"/>
<rect x="18" y="33" width="1" height="1" fill="#1f2937"/>
<rect x="19" y="33" width="1" height="1" fill="#1f2937"/>
<rect x="20" y="33" width="1" height="1" fill="#1f2937"/>
<rect x="21" y="33" width="1" height="1" fill="#1f2937"/>
<rect x="22" y="33" width="1" height="1" fill="#1f2937"/>
<rect x="23" y="33" width="1" height="1" fill="#1f2937"/>
<rect x="24" y="33" width="1" height="1" fill="#1f2937"/>
<rect x="25" y="33" width="1" height="1" fill="#1f2936"/>
<rect x="37" y="33" width="1" height="1" fill="#1f2937"/>
<rect x="38" y="33" width="1" height="1" fill="#1f2937"/>
<rect x="39" y="33" width="1" height="1" fill="#1f2937"/>
<rect x="40" y="33" width="1" height="1" fill="#1f2937"/>
<rect x="41" y="33" width="1" height="1" fill="#1f2937"/>
<rect x="42" y="33" width="1" height="1" fill="#1f2937"/>
<rect x="43" y="33" width="1" height="1" fill="#1f2937"/>
<rect x="44" y="33" width="1" height="1" fill="#1f2937"/>
<rect x="45" y="33" width="1" height="1" fill="#1f2937"/>
<rect x="46" y="33" width="1" height="1" fill="#1f2937"/>
<rect x="47" y="33" width="1" height="1" fill="#1f2937"/>
<rect x="59" y="33" width="1" height="1" fill="#1f2937"/>
<rect x="2" y="34" width="1" height="1" fill="#1f2937"/>
<rect x="3" y="34" width="1" height="1" fill="#1f2937"/>
<rect x="19" y="34" width="1" height="1" fill="#1f2937"/>
<rect x="20" y="34" width="1" height="1" fill="#1f2937"/>
<rect x="42" y="34" width="1" height="1" fill="#1f2937"/>
<rect x="43" y="34" width="1" height="1" fill="#1f2937"/>
<rect x="59" y="34" width="1" height="1" fill="#1f2937"/>
<rect x="60" y="34" width="1" height="1" fill="#1f2937"/>
<rect x="2" y="35" width="1" height="1" fill="#1f2937"/>
<rect x="19" y="35" width="1" height="1" fill="#1f2937"/>
<rect x="20" y="35" width="1" height="1" fill="#1f2937"/>
<rect x="42" y="35" width="1" height="1" fill="#1f2937"/>
<rect x="43" y="35" width="1" height="1" fill="#1f2937"/>
<rect x="60" y="35" width="1" height="1" fill="#1f2937"/>
<rect x="1" y="36" width="1" height="1" fill="#1f2937"/>
<rect x="2" y="36" width="1" height="1" fill="#1f2937"/>
<rect x="19" y="36" width="1" height="1" fill="#1f2937"/>
<rect x="20" y="36" width="1" height="1" fill="#1f2937"/>
<rect x="42" y="36" width="1" height="1" fill="#1f2937"/>
<rect x="43" y="36" width="1" height="1" fill="#1f2937"/>
<rect x="60" y="36" width="1" height="1" fill="#1f2937"/>
<rect x="61" y="36" width="1" height="1" fill="#1f2937"/>
<rect x="1" y="37" width="1" height="1" fill="#1f2937"/>
<rect x="2" y="37" width="1" height="1" fill="#1f2937"/>
<rect x="19" y="37" width="1" height="1" fill="#1f2937"/>
<rect x="20" y="37" width="1" height="1" fill="#1f2937"/>
<rect x="42" y="37" width="1" height="1" fill="#1f2937"/>
<rect x="43" y="37" width="1" height="1" fill="#1f2937"/>
<rect x="60" y="37" width="1" height="1" fill="#1f2937"/>
<rect x="61" y="37" width="1" height="1" fill="#1f2937"/>
<rect x="1" y="38" width="1" height="1" fill="#1f2937"/>
<rect x="6" y="38" width="1" height="1" fill="#1f2937"/>
<rect x="7" y="38" width="1" height="1" fill="#1f2937"/>
<rect x="8" y="38" width="1" height="1" fill="#1f2937"/>
<rect x="9" y="38" width="1" height="1" fill="#1f2937"/>
<rect x="10" y="38" width="1" height="1" fill="#1f2937"/>
<rect x="11" y="38" width="1" height="1" fill="#1f2937"/>
<rect x="19" y="38" width="1" height="1" fill="#1f2937"/>
<rect x="20" y="38" width="1" height="1" fill="#1f2937"/>
<rect x="42" y="38" width="1" height="1" fill="#1f2937"/>
<rect x="43" y="38" width="1" height="1" fill="#1f2937"/>
<rect x="51" y="38" width="1" height="1" fill="#1f2937"/>
<rect x="52" y="38" width="1" height="1" fill="#1f2937"/>
<rect x="53" y="38" width="1" height="1" fill="#1f2937"/>
<rect x="54" y="38" width="1" height="1" fill="#1f2937"/>
<rect x="55" y="38" width="1" height="1" fill="#1f2937"/>
<rect x="56" y="38" width="1" height="1" fill="#1f2937"/>
<rect x="61" y="38" width="1" height="1" fill="#1f2937"/>
<rect x="1" y="39" width="1" height="1" fill="#1f2937"/>
<rect x="8" y="39" width="1" height="1" fill="#1f2937"/>
<rect x="9" y="39" width="1" height="1" fill="#1f2937"/>
<rect x="10" y="39" width="1" height="1" fill="#1f2937"/>
<rect x="11" y="39" width="1" height="1" fill="#1f2937"/>
<rect x="12" y="39" width="1" height="1" fill="#1f2937"/>
<rect x="13" y="39" width="1" height="1" fill="#1f2937"/>
<rect x="19" y="39" width="1" height="1" fill="#1f2937"/>
<rect x="20" y="39" width="1" height="1" fill="#1f2937"/>
<rect x="42" y="39" width="1" height="1" fill="#1f2937"/>
<rect x="43" y="39" width="1" height="1" fill="#1f2937"/>
<rect x="49" y="39" width="1" height="1" fill="#1f2937"/>
<rect x="50" y="39" width="1" height="1" fill="#1f2937"/>
<rect x="51" y="39" width="1" height="1" fill="#1f2937"/>
<rect x="52" y="39" width="1" height="1" fill="#1f2937"/>
<rect x="53" y="39" width="1" height="1" fill="#1f2937"/>
<rect x="54" y="39" width="1" height="1" fill="#1f2937"/>
<rect x="61" y="39" width="1" height="1" fill="#1f2937"/>
<rect x="1" y="40" width="1" height="1" fill="#1f2937"/>
<rect x="19" y="40" width="1" height="1" fill="#1f2937"/>
<rect x="20" y="40" width="1" height="1" fill="#1f2937"/>
<rect x="42" y="40" width="1" height="1" fill="#1f2937"/>
<rect x="43" y="40" width="1" height="1" fill="#1f2937"/>
<rect x="61" y="40" width="1" height="1" fill="#1f2937"/>
<rect x="1" y="41" width="1" height="1" fill="#1f2937"/>
<rect x="19" y="41" width="1" height="1" fill="#1f2937"/>
<rect x="20" y="41" width="1" height="1" fill="#1f2937"/>
<rect x="30" y="41" width="1" height="1" fill="#1f2937"/>
<rect x="31" y="41" width="1" height="1" fill="#1f2937"/>
<rect x="32" y="41" width="1" height="1" fill="#1f2937"/>
<rect x="42" y="41" width="1" height="1" fill="#1f2937"/>
<rect x="43" y="41" width="1" height="1" fill="#1f2937"/>
<rect x="61" y="41" width="1" height="1" fill="#1f2937"/>
<rect x="1" y="42" width="1" height="1" fill="#1f2937"/>
<rect x="19" y="42" width="1" height="1" fill="#1f2937"/>
<rect x="20" y="42" width="1" height="1" fill="#1f2937"/>
<rect x="30" y="42" width="1" height="1" fill="#1f2937"/>
<rect x="31" y="42" width="1" height="1" fill="#1f2937"/>
<rect x="32" y="42" width="1" height="1" fill="#1f2937"/>
<rect x="42" y="42" width="1" height="1" fill="#1f2937"/>
<rect x="43" y="42" width="1" height="1" fill="#1f2937"/>
<rect x="61" y="42" width="1" height="1" fill="#1f2937"/>
<rect x="1" y="43" width="1" height="1" fill="#1f2937"/>
<rect x="2" y="43" width="1" height="1" fill="#1f2937"/>
<rect x="8" y="43" width="1" height="1" fill="#1f2937"/>
<rect x="9" y="43" width="1" height="1" fill="#1f2937"/>
<rect x="10" y="43" width="1" height="1" fill="#1f2937"/>
<rect x="11" y="43" width="1" height="1" fill="#1f2937"/>
<rect x="12" y="43" width="1" height="1" fill="#1f2937"/>
<rect x="13" y="43" width="1" height="1" fill="#1f2937"/>
<rect x="30" y="43" width="1" height="1" fill="#1f2937"/>
<rect x="31" y="43" width="1" height="1" fill="#1f2937"/>
<rect x="32" y="43" width="1" height="1" fill="#1f2937"/>
<rect x="49" y="43" width="1" height="1" fill="#1f2937"/>
<rect x="50" y="43" width="1" height="1" fill="#1f2937"/>
<rect x="51" y="43" width="1" height="1" fill="#1f2937"/>
<rect x="52" y="43" width="1" height="1" fill="#1f2937"/>
<rect x="53" y="43" width="1" height="1" fill="#1f2937"/>
<rect x="54" y="43" width="1" height="1" fill="#1f2937"/>
<rect x="61" y="43" width="1" height="1" fill="#1f2937"/>
<rect x="1" y="44" width="1" height="1" fill="#1f2937"/>
<rect x="2" y="44" width="1" height="1" fill="#1f2937"/>
<rect x="6" y="44" width="1" height="1" fill="#1f2937"/>
<rect x="7" y="44" width="1" height="1" fill="#1f2937"/>
<rect x="8" y="44" width="1" height="1" fill="#1f2937"/>
<rect x="9" y="44" width="1" height="1" fill="#1f2937"/>
<rect x="10" y="44" width="1" height="1" fill="#1f2937"/>
<rect x="11" y="44" width="1" height="1" fill="#1f2937"/>
<rect x="31" y="44" width="1" height="1" fill="#1f2937"/>
<rect x="51" y="44" width="1" height="1" fill="#1f2937"/>
<rect x="52" y="44" width="1" height="1" fill="#1f2937"/>
<rect x="53" y="44" width="1" height="1" fill="#1f2937"/>
<rect x="54" y="44" width="1" height="1" fill="#1f2937"/>
<rect x="55" y="44" width="1" height="1" fill="#1f2937"/>
<rect x="56" y="44" width="1" height="1" fill="#1f2937"/>
<rect x="60" y="44" width="1" height="1" fill="#1f2937"/>
<rect x="61" y="44" width="1" height="1" fill="#1f2937"/>
<rect x="2" y="45" width="1" height="1" fill="#1f2937"/>
<rect x="31" y="45" width="1" height="1" fill="#1f2937"/>
<rect x="60" y="45" width="1" height="1" fill="#1f2937"/>
<rect x="61" y="45" width="1" height="1" fill="#1f2937"/>
<rect x="2" y="46" width="1" height="1" fill="#1f2937"/>
<rect x="31" y="46" width="1" height="1" fill="#1f2937"/>
<rect x="60" y="46" width="1" height="1" fill="#1f2937"/>
<rect x="2" y="47" width="1" height="1" fill="#1f2937"/>
<rect x="3" y="47" width="1" height="1" fill="#1f2937"/>
<rect x="30" y="47" width="1" height="1" fill="#1f2937"/>
<rect x="31" y="47" width="1" height="1" fill="#202735"/>
<rect x="32" y="47" width="1" height="1" fill="#1f2937"/>
<rect x="59" y="47" width="1" height="1" fill="#1f2937"/>
<rect x="60" y="47" width="1" height="1" fill="#1f2937"/>
<rect x="3" y="48" width="1" height="1" fill="#1f2937"/>
<rect x="4" y="48" width="1" height="1" fill="#1f2937"/>
<rect x="27" y="48" width="1" height="1" fill="#1f2937"/>
<rect x="28" y="48" width="1" height="1" fill="#1f2937"/>
<rect x="29" y="48" width="1" height="1" fill="#1f2937"/>
<rect x="33" y="48" width="1" height="1" fill="#1f2937"/>
<rect x="34" y="48" width="1" height="1" fill="#1f2937"/>
<rect x="35" y="48" width="1" height="1" fill="#1f2937"/>
<rect x="59" y="48" width="1" height="1" fill="#1f2937"/>
<rect x="4" y="49" width="1" height="1" fill="#1f2937"/>
<rect x="58" y="49" width="1" height="1" fill="#1f2937"/>
<rect x="59" y="49" width="1" height="1" fill="#1f2937"/>
<rect x="5" y="50" width="1" height="1" fill="#1f2937"/>
<rect x="57" y="50" width="1" height="1" fill="#1f2937"/>
<rect x="58" y="50" width="1" height="1" fill="#1f2937"/>
<rect x="6" y="51" width="1" height="1" fill="#1f2937"/>
<rect x="7" y="51" width="1" height="1" fill="#1f2937"/>
<rect x="56" y="51" width="1" height="1" fill="#1f2937"/>
<rect x="57" y="51" width="1" height="1" fill="#1f2937"/>
<rect x="7" y="52" width="1" height="1" fill="#1f2937"/>
<rect x="8" y="52" width="1" height="1" fill="#1f2937"/>
<rect x="54" y="52" width="1" height="1" fill="#1f2937"/>
<rect x="55" y="52" width="1" height="1" fill="#1f2937"/>
<rect x="56" y="52" width="1" height="1" fill="#1f2937"/>
<rect x="8" y="53" width="1" height="1" fill="#1f2937"/>
<rect x="9" y="53" width="1" height="1" fill="#1f2937"/>
<rect x="10" y="53" width="1" height="1" fill="#1f2937"/>
<rect x="11" y="53" width="1" height="1" fill="#1f2937"/>
<rect x="51" y="53" width="1" height="1" fill="#1f2937"/>
<rect x="52" y="53" width="1" height="1" fill="#1f2937"/>
<rect x="53" y="53" width="1" height="1" fill="#1f2937"/>
<rect x="54" y="53" width="1" height="1" fill="#1f2937"/>
<rect x="11" y="54" width="1" height="1" fill="#1f2937"/>
<rect x="12" y="54" width="1" height="1" fill="#1f2937"/>
<rect x="13" y="54" width="1" height="1" fill="#1f2937"/>
<rect x="14" y="54" width="1" height="1" fill="#1f2937"/>
<rect x="15" y="54" width="1" height="1" fill="#1f2937"/>
<rect x="16" y="54" width="1" height="1" fill="#1f2937"/>
<rect x="17" y="54" width="1" height="1" fill="#1f2937"/>
<rect x="18" y="54" width="1" height="1" fill="#1f2937"/>
<rect x="44" y="54" width="1" height="1" fill="#1f2937"/>
<rect x="45" y="54" width="1" height="1" fill="#1f2937"/>
<rect x="46" y="54" width="1" height="1" fill="#1f2937"/>
<rect x="47" y="54" width="1" height="1" fill="#1f2937"/>
<rect x="48" y="54" width="1" height="1" fill="#1f2937"/>
<rect x="49" y="54" width="1" height="1" fill="#1f2937"/>
<rect x="50" y="54" width="1" height="1" fill="#1f2937"/>
<rect x="51" y="54" width="1" height="1" fill="#1f2937"/>
<rect x="16" y="55" width="1" height="1" fill="#1f2937"/>
<rect x="17" y="55" width="1" height="1" fill="#1f2937"/>
<rect x="18" y="55" width="1" height="1" fill="#1f2937"/>
<rect x="19" y="55" width="1" height="1" fill="#1f2937"/>
<rect x="20" y="55" width="1" height="1" fill="#1f2937"/>
<rect x="42" y="55" width="1" height="1" fill="#1f2937"/>
<rect x="43" y="55" width="1" height="1" fill="#1f2937"/>
<rect x="44" y="55" width="1" height="1" fill="#1f2937"/>
<rect x="45" y="55" width="1" height="1" fill="#1f2937"/>
<rect x="46" y="55" width="1" height="1" fill="#1f2937"/>
<rect x="20" y="56" width="1" height="1" fill="#1f2937"/>
<rect x="21" y="56" width="1" height="1" fill="#1f2937"/>
<rect x="22" y="56" width="1" height="1" fill="#1f2937"/>
<rect x="40" y="56" width="1" height="1" fill="#1f2937"/>
<rect x="41" y="56" width="1" height="1" fill="#1f2937"/>
<rect x="42" y="56" width="1" height="1" fill="#1f2937"/>
<rect x="22" y="57" width="1" height="1" fill="#1f2937"/>
<rect x="23" y="57" width="1" height="1" fill="#1f2937"/>
<rect x="24" y="57" width="1" height="1" fill="#1f2937"/>
<rect x="25" y="57" width="1" height="1" fill="#1f2937"/>
<rect x="38" y="57" width="1" height="1" fill="#1f2937"/>
<rect x="39" y="57" width="1" height="1" fill="#1f2937"/>
<rect x="40" y="57" width="1" height="1" fill="#1f2937"/>
<rect x="25" y="58" width="1" height="1" fill="#1f2937"/>
<rect x="26" y="58" width="1" height="1" fill="#1f2937"/>
<rect x="27" y="58" width="1" height="1" fill="#1f2937"/>
<rect x="28" y="58" width="1" height="1" fill="#1f2937"/>
<rect x="29" y="58" width="1" height="1" fill="#1f2937"/>
<rect x="30" y="58" width="1" height="1" fill="#1f2937"/>
<rect x="31" y="58" width="1" height="1" fill="#1f2937"/>
<rect x="32" y="58" width="1" height="1" fill="#1f2937"/>
<rect x="33" y="58" width="1" height="1" fill="#1f2937"/>
<rect x="34" y="58" width="1" height="1" fill="#1f2937"/>
<rect x="35" y="58" width="1" height="1" fill="#1f2937"/>
<rect x="36" y="58" width="1" height="1" fill="#1f2937"/>
<rect x="37" y="58" width="1" height="1" fill="#1f2937"/>
<rect x="38" y="58" width="1" height="1" fill="#1f2937"/>
<rect x="29" y="59" width="1" height="1" fill="#1f2937"/>
<rect x="30" y="59" width="1" height="1" fill="#1f2937"/>
<rect x="31" y="59" width="1" height="1" fill="#1f2937"/>
<rect x="32" y="59" width="1" height="1" fill="#1f2937"/>
<rect x="33" y="59" width="1" height="1" fill="#1f2937"/>
<rect x="34" y="59" width="1" height="1" fill="#1f2937"/>
</svg>