<svg width="475" height="105" viewBox="0 0 475 105" fill="none" xmlns="http://www.w3.org/2000/svg" aria-label="E5 Hayabusa Shinkansen">
<circle cx="228" cy="95" r="10" fill="#5a5a5a"/>
<circle cx="254" cy="95" r="10" fill="#5a5a5a"/>
<circle cx="394" cy="95" r="10" fill="#5a5a5a"/>
<circle cx="420" cy="95" r="10" fill="#5a5a5a"/>
<mask id="mask0_1008_102" style="mask-type:luminance" maskUnits="userSpaceOnUse" x="1" y="1" width="473" height="93">
<path d="M3.5 84.5C0.8 79.8 0.2 70.8 3.5 65.5C17.4 49.6 37.6 57.4 72 45C86.3 39.9 106.1 21.6 125.5 15C141.4 9.6 160.9 10.5 176.5 8.5C185.4 7.4 196.1 3 205.5 2.3L463.5 1.3C467.8 1.3 471.2 2.3 473.5 4.5V84.3C473.5 90.3 470.5 93.3 464.5 93.3H20.5C9.2 93.3 3.5 90.3 3.5 84.5Z" fill="white"/>
</mask>
<g mask="url(#mask0_1008_102)">
<path d="M496-18H-4V112H496V-18Z" fill="white"/>
<path d="M3.5 84.5C0.8 79.8 0.2 70.8 3.5 65.5C17.4 49.6 37.6 57.4 72 45C86.3 39.9 106.1 21.6 125.5 15C141.4 9.6 160.9 10.5 176.5 8.5C185.4 7.4 196.1 3 205.5 2.3L473.5 1.3V57H195C120 60 60 78 12 94L3.5 84.5Z" fill="#3fbf9f"/>
<path d="M474 60.5H206C186 60.5 171 61.5 158 63" stroke="#ee3d77" stroke-width="7" stroke-linecap="round"/>
</g>
<path d="M3.5 84.5C0.8 79.8 0.2 70.8 3.5 65.5C17.4 49.6 37.6 57.4 72 45C86.3 39.9 106.1 21.6 125.5 15C141.4 9.6 160.9 10.5 176.5 8.5C185.4 7.4 196.1 3 205.5 2.3L463.5 1.3C467.8 1.3 471.2 2.3 473.5 4.5V84.3C473.5 90.3 470.5 93.3 464.5 93.3H20.5C11 92.5 7.8 92 3.5 84.5Z" stroke="#cfcfcf" stroke-width="2.5" stroke-linejoin="round"/>
<path d="M310 8H288C284.7 8 282 10.7 282 14V84C282 87.3 284.7 90 288 90H310C313.3 90 316 87.3 316 84V14C316 10.7 313.3 8 310 8Z" stroke="#c8c8c8" stroke-width="2.5"/>
<path d="M304 15H294C291.8 15 290 16.8 290 19V35C290 37.2 291.8 39 294 39H304C306.2 39 308 37.2 308 35V19C308 16.8 306.2 15 304 15Z" fill="#4458c8"/>
<path d="M350 12H339C336.2 12 334 14.2 334 17V32C334 34.8 336.2 37 339 37H350C352.8 37 355 34.8 355 32V17C355 14.2 352.8 12 350 12Z" fill="#4458c8"/>
<path d="M386 12H375C372.2 12 370 14.2 370 17V32C370 34.8 372.2 37 375 37H386C388.8 37 391 34.8 391 32V17C391 14.2 388.8 12 386 12Z" fill="#4458c8"/>
<path d="M422 12H411C408.2 12 406 14.2 406 17V32C406 34.8 408.2 37 411 37H422C424.8 37 427 34.8 427 32V17C427 14.2 424.8 12 422 12Z" fill="#4458c8"/>
<path d="M456 6V90" stroke="#d8d8d8" stroke-width="2"/>
<path d="M158.5 11C151 11.5 154.5 11 146.5 12C140.5 12.8 133.4 13.1 126.3 15.7C119.3 18.2 107.2 24.2 103 28C96.5 32.5 96 32 93 34.5L147.5 25.5L158.5 11Z" fill="#000"/>
</svg>
