<svg width="467" height="105" viewBox="0 0 467 105" fill="none" xmlns="http://www.w3.org/2000/svg" aria-label="E5 Hayabusa Shinkansen">
<circle cx="104" cy="95" r="10" fill="#5a5a5a"/>
<circle cx="130" cy="95" r="10" fill="#5a5a5a"/>
<circle cx="337" cy="95" r="10" fill="#5a5a5a"/>
<circle cx="363" cy="95" r="10" fill="#5a5a5a"/>
<mask id="mask0_1008_103" style="mask-type:luminance" maskUnits="userSpaceOnUse" x="1" y="1" width="465" height="96">
<path d="M456.3 1.3H10.3C5.3 1.3 1.3 5.3 1.3 10.3V87.3C1.3 92.2 5.3 96.3 10.3 96.3H456.3C461.2 96.3 465.3 92.2 465.3 87.3V10.3C465.3 5.3 461.2 1.3 456.3 1.3Z" fill="white"/>
</mask>
<g mask="url(#mask0_1008_103)">
<path d="M465.3 1.3H1.3V96.3H465.3V1.3Z" fill="white"/>
<path d="M465.3 1.3H1.3V57H465.3V1.3Z" fill="#3fbf9f"/>
<path d="M1.3 60.5H465.3" stroke="#ee3d77" stroke-width="7"/>
</g>
<path d="M456.3 1.3H10.3C5.3 1.3 1.3 5.3 1.3 10.3V87.3C1.3 92.2 5.3 96.3 10.3 96.3H456.3C461.2 96.3 465.3 92.2 465.3 87.3V10.3C465.3 5.3 461.2 1.3 456.3 1.3Z" stroke="#cfcfcf" stroke-width="2.5"/>
<path d="M15.3 5.3V92.3" stroke="#d8d8d8" stroke-width="2"/>
<path d="M451.3 5.3V92.3" stroke="#d8d8d8" stroke-width="2"/>
<path d="M55.3 9.3H33.3C30 9.3 27.3 12 27.3 15.3V87.3C27.3 90.6 30 93.3 33.3 93.3H55.3C58.6 93.3 61.3 90.6 61.3 87.3V15.3C61.3 12 58.6 9.3 55.3 9.3Z" stroke="#c8c8c8" stroke-width="2.5"/>
<path d="M49.3 15.3H39.3C37.1 15.3 35.3 17.1 35.3 19.3V35.3C35.3 37.5 37.1 39.3 39.3 39.3H49.3C51.5 39.3 53.3 37.5 53.3 35.3V19.3C53.3 17.1 51.5 15.3 49.3 15.3Z" fill="#4458c8"/>
<path d="M433.3 9.3H411.3C408 9.3 405.3 12 405.3 15.3V87.3C405.3 90.6 408 93.3 411.3 93.3H433.3C436.6 93.3 439.3 90.6 439.3 87.3V15.3C439.3 12 436.6 9.3 433.3 9.3Z" stroke="#c8c8c8" stroke-width="2.5"/>
<path d="M427.3 15.3H417.3C415.1 15.3 413.3 17.1 413.3 19.3V35.3C413.3 37.5 415.1 39.3 417.3 39.3H427.3C429.5 39.3 431.3 37.5 431.3 35.3V19.3C431.3 17.1 429.5 15.3 427.3 15.3Z" fill="#4458c8"/>
<path d="M108.3 14.3H96.3C93.5 14.3 91.3 16.5 91.3 19.3V34.3C91.3 37.1 93.5 39.3 96.3 39.3H108.3C111.1 39.3 113.3 37.1 113.3 34.3V19.3C113.3 16.5 111.1 14.3 108.3 14.3Z" fill="#4458c8"/>
<path d="M158.3 14.3H146.3C143.5 14.3 141.3 16.5 141.3 19.3V34.3C141.3 37.1 143.5 39.3 146.3 39.3H158.3C161.1 39.3 163.3 37.1 163.3 34.3V19.3C163.3 16.5 161.1 14.3 158.3 14.3Z" fill="#4458c8"/>
<path d="M208.3 14.3H196.3C193.5 14.3 191.3 16.5 191.3 19.3V34.3C191.3 37.1 193.5 39.3 196.3 39.3H208.3C211.1 39.3 213.3 37.1 213.3 34.3V19.3C213.3 16.5 211.1 14.3 208.3 14.3Z" fill="#4458c8"/>
<path d="M258.3 14.3H246.3C243.5 14.3 241.3 16.5 241.3 19.3V34.3C241.3 37.1 243.5 39.3 246.3 39.3H258.3C261.1 39.3 263.3 37.1 263.3 34.3V19.3C263.3 16.5 261.1 14.3 258.3 14.3Z" fill="#4458c8"/>
<path d="M308.3 14.3H296.3C293.5 14.3 291.3 16.5 291.3 19.3V34.3C291.3 37.1 293.5 39.3 296.3 39.3H308.3C311.1 39.3 313.3 37.1 313.3 34.3V19.3C313.3 16.5 311.1 14.3 308.3 14.3Z" fill="#4458c8"/>
<path d="M358.3 14.3H346.3C343.5 14.3 341.3 16.5 341.3 19.3V34.3C341.3 37.1 343.5 39.3 346.3 39.3H358.3C361.1 39.3 363.3 37.1 363.3 34.3V19.3C363.3 16.5 361.1 14.3 358.3 14.3Z" fill="#4458c8"/>
</svg>
